<svg id="Flat" height="512" viewBox="0 0 512 512" width="512" xmlns="http://www.w3.org/2000/svg"><g><path d="m390.3643 335.584-5.0928-15.168 16.3285-5.4824a101.7912 101.7912 0 0 0 65.5478-124.938l-14.5658-50.5488a22 22 0 0 0 -34.5244-11.3692l-44.8867 38.0264-10.3418-12.208 45.0239-38.1426q.1275-.1083.2593-.2109a37.9994 37.9994 0 0 1 59.8438 19.4741l14.5659 50.5483a117.7584 117.7584 0 0 1 -75.8291 144.5367z" fill="#24afd6"/><path d="m120.7959 335.584-16.3286-5.4824a117.7582 117.7582 0 0 1 -75.8291-144.5367l14.5659-50.5488a38 38 0 0 1 59.8438-19.4736q.1032.0805.2036.164l45.8637 38.1426-10.23 12.3018-45.7552-38.0523a22 22 0 0 0 -34.5518 11.3477l-14.566 50.5493a101.7914 101.7914 0 0 0 65.5478 124.938l16.3286 5.4824z" fill="#24afd6"/><path d="m271.9094 120.5086 144.0906 39.6249 22.5886 67.7658a60 60 0 0 1 -7.373 52.8113l-39.2156 57.4229-110.1268 52.6342a60 60 0 0 1 -51.7464 0l-110.1268-52.6342-39.2156-57.4229a60 60 0 0 1 -7.373-52.8113l22.5886-67.7658 144.0906-39.6249a59.9994 59.9994 0 0 1 31.8188 0z" fill="#57cee6"/><g><path d="m441.6475 248.39-137.14-34.285a199.9974 199.9974 0 0 0 -97.0142 0l-137.1408 34.285a60.022 60.022 0 0 0 5.5564 23.7435h360.1822a60.022 60.022 0 0 0 5.5564-23.7435z" fill="#79d8eb"/><path d="m75.9089 272.1335a59.9879 59.9879 0 0 0 4.8755 8.5771l6.0677 8.885 105.9023 35.3008a200.001 200.001 0 0 0 126.4912 0l105.9023-35.3008 6.0677-8.885a59.9879 59.9879 0 0 0 4.8755-8.5771z" fill="#bcebf5"/></g><path d="m416 160.1335-144.0906-39.625a60.0015 60.0015 0 0 0 -31.8188 0l-144.0906 39.625-16 39.1271 160.0906-45.1129a60.0015 60.0015 0 0 1 31.8188 0l160.0906 47.1633z" fill="#dcf9fe"/></g></svg>