<?xml version="1.0" encoding="iso-8859-1"?>
<!-- Generator: Adobe Illustrator 19.0.0, SVG Export Plug-In . SVG Version: 6.00 Build 0)  -->
<svg version="1.1" id="Capa_1" xmlns="http://www.w3.org/2000/svg" xmlns:xlink="http://www.w3.org/1999/xlink" x="0px" y="0px"
	 viewBox="0 0 512 512" style="enable-background:new 0 0 512 512;" xml:space="preserve">
<g>
	<g>
		<path d="M510.978,236.187l-56.113-96.193c-0.778-1.334-1.949-2.395-3.354-3.039L259.125,48.778c-1.984-0.909-4.266-0.909-6.25,0
			L60.488,136.955c-1.404,0.644-2.575,1.705-3.354,3.039L1.021,236.187c-1.066,1.829-1.311,4.023-0.672,6.042
			c0.639,2.019,2.101,3.673,4.025,4.555l192.387,88.177c3.508,1.608,7.66,0.292,9.604-3.039l42.135-72.231v185.022L71.113,363.411
			v-62.822c0-4.142-3.357-7.5-7.5-7.5c-4.143,0-7.5,3.358-7.5,7.5v67.636c0,2.933,1.709,5.596,4.375,6.818l192.387,88.178
			c0.992,0.455,2.059,0.682,3.125,0.682s2.133-0.228,3.125-0.682l192.387-88.178c2.666-1.222,4.375-3.885,4.375-6.818v-67.634
			c0-4.142-3.357-7.5-7.5-7.5s-7.5,3.358-7.5,7.5v62.821L263.5,444.714V259.692l42.135,72.231c1.384,2.373,3.889,3.722,6.482,3.722
			c1.049,0,2.111-0.22,3.121-0.683l192.387-88.177c1.925-0.882,3.387-2.537,4.025-4.555
			C512.289,240.211,512.045,238.016,510.978,236.187z M196.833,318.494L18.148,236.597l48.518-83.174l178.685,81.897
			L196.833,318.494z M256,223.7L81.613,143.773L256,63.846l174.386,79.927L256,223.7z M315.167,318.494l-48.518-83.174
			l178.684-81.897l48.518,83.174L315.167,318.494z"/>
	</g>
</g>
<g>
</g>
<g>
</g>
<g>
</g>
<g>
</g>
<g>
</g>
<g>
</g>
<g>
</g>
<g>
</g>
<g>
</g>
<g>
</g>
<g>
</g>
<g>
</g>
<g>
</g>
<g>
</g>
<g>
</g>
</svg>
