<svg height="439pt" viewBox="-12 0 439 439.536" width="439pt" xmlns="http://www.w3.org/2000/svg"><path d="m407.269531 175.574219v216.960937c0 22.09375-17.910156 40-40 40h-320c-22.09375 0-40-17.90625-40-40v-216.808594l80 67.738282 94.207031 79.769531c14.929688 12.640625 36.804688 12.632813 51.722657-.019531l94.070312-79.789063zm0 0" fill="#e48e66"/><path d="m407.269531 175.574219-80 67.851562v-135.589843zm0 0" fill="#f8ec7d"/><path d="m327.269531 107.835938v135.589843l-94.070312 79.789063c-14.917969 12.652344-36.792969 12.660156-51.722657.019531l-94.207031-79.769531v-204.757813c0-17.511719 14.195313-31.707031 31.707031-31.710937h120.972657l1.609375.160156v53.839844c-.003906 17.511718 14.195312 31.710937 31.710937 31.710937h54zm-50 81.929687c0-38.660156-31.339843-70-70-70-38.660156 0-70 31.339844-70 70s31.339844 70 70 70c38.660157 0 70-31.339844 70-70zm0 0" fill="#6fe3ff"/><path d="m327.269531 92.527344v.179687h-54c-17.515625 0-31.714843-14.199219-31.710937-31.710937v-53.839844l.167968.019531zm0 0" fill="#2561a1"/><path d="m207.269531 119.765625c32.585938.011719 60.851563 22.511719 68.167969 54.265625s-8.253906 64.359375-37.550781 78.625c-29.296875 14.269531-64.566407 6.425781-85.054688-18.910156-20.488281-25.339844-20.777343-61.46875-.695312-87.128906 13.273437-16.953126 33.605469-26.855469 55.132812-26.851563zm0 0" fill="#f8ec7d"/><path d="m87.269531 107.875v135.589844l-80-67.738282zm0 0" fill="#f8ec7d"/><g fill="#63316d"><path d="m410.652344 169.269531-76.382813-64.679687v-12.0625c0-1.859375-.742187-3.644532-2.058593-4.957032l-85.542969-85.347656c-.007813-.007812-.015625-.015625-.023438-.023437-1.320312-1.40625-3.164062-2.199219-5.089843-2.199219-.265626 0-.527344.015625-.789063.046875l-.132813-.0117188c-.230468-.0234374-.460937-.0351562-.6875-.0351562h-120.96875c-21.367187.0234375-38.683593 17.339844-38.707031 38.707031v65.929688l-75.964843 64.429687c-2.460938 1.148438-4.03125 3.617188-4.035157 6.328125v217.140625c.027344 25.945313 21.054688 46.972656 47 47h320c25.945313-.027344 46.96875-21.054687 47-47v-217.140625c-.003906-2.546875-1.386719-4.890625-3.617187-6.125zm-14.210938 6.308594-62.171875 52.734375v-105.378906zm-147.882812-151.699219 61.964844 61.828125h-37.253907c-13.640625-.015625-24.695312-11.070312-24.710937-24.710937zm-129.582032-9.882812h115.582032v47c.023437 21.367187 17.339844 38.6875 38.710937 38.710937h47v140.480469l-91.601562 77.691406c-12.289063 10.480469-30.371094 10.488282-42.671875.015625l-91.726563-77.675781v-201.511719c.015625-13.640625 11.066407-24.695312 24.707031-24.710937zm-38.707031 109v105.371094l-62.175781-52.644532zm-33 302.539062c-7.226562.007813-14.25-2.371094-19.988281-6.761718l95.710938-97.882813c2.664062-2.769531 2.59375-7.171875-.152344-9.855469-2.746094-2.6875-7.148438-2.65625-9.855469.066406l-94.816406 96.972657c-2.566407-4.777344-3.90625-10.117188-3.898438-15.539063v-201.710937l68.527344 58.027343.027344.023438 94.128906 79.699219c17.515625 14.917969 43.269531 14.90625 60.773437-.019531l162.542969-137.863282v201.84375c.003907 5.445313-1.34375 10.804688-3.925781 15.59375l-95.375-97.039062c-1.746094-1.816406-4.335938-2.554688-6.777344-1.933594s-4.359375 2.507812-5.023437 4.9375c-.664063 2.433594.03125 5.03125 1.816406 6.808594l96.222656 97.902344c-5.726562 4.371093-12.734375 6.734374-19.9375 6.730468zm0 0"/><path d="m189.136719 212.570312c2.464843 2.890626 6.789062 3.285157 9.738281.882813l44.894531-36.515625c1.957031-1.574219 2.921875-4.074219 2.527344-6.554688-.394531-2.480468-2.085937-4.558593-4.433594-5.449218-2.347656-.890625-4.992187-.453125-6.929687 1.144531l-39.589844 32.199219-14.832031-17.371094c-1.609375-1.949219-4.144531-2.878906-6.632813-2.433594-2.488281.449219-4.542968 2.203125-5.375 4.589844-.832031 2.386719-.308594 5.039062 1.363282 6.933594zm0 0"/><path d="m207.269531 266.765625c36.007813-.003906 67.203125-24.96875 75.109375-60.097656 7.902344-35.132813-9.597656-71.050781-42.132812-86.476563-32.539063-15.429687-71.421875-6.246094-93.621094 22.109375-18.15625 23.191407-21.492188 54.710938-8.589844 81.191407 12.902344 26.480468 39.777344 43.277343 69.234375 43.273437zm-49.621093-115.832031c18.964843-24.253906 52.683593-31.253906 79.738281-16.550782 27.054687 14.699219 39.527343 46.796876 29.496093 75.910157-10.027343 29.109375-39.625 46.714843-69.992187 41.628906-30.371094-5.082031-52.621094-31.363281-52.621094-62.15625-.027343-14.078125 4.683594-27.757813 13.378907-38.832031zm0 0"/></g></svg>