<svg width="92" height="81" viewBox="0 0 92 81" fill="none" xmlns="http://www.w3.org/2000/svg">
<path d="M60.5741 0.978029C60.5541 0.967029 60.5331 0.965029 60.5131 0.957029C60.4801 0.943029 60.4501 0.93103 60.4161 0.92503C60.3861 0.91903 60.3551 0.91803 60.3251 0.91803C60.2921 0.91803 60.2601 0.91903 60.2271 0.92503C60.1961 0.93203 60.1681 0.94303 60.1391 0.95403C60.1091 0.96603 60.0801 0.97803 60.0531 0.99603C60.0251 1.01403 60.0011 1.03703 59.9771 1.06003C59.9611 1.07603 59.9421 1.08503 59.9281 1.10303L46.3421 18.603L33.2591 3.39203C33.2471 3.37703 33.2301 3.37103 33.2171 3.35903C33.1931 3.33703 33.1681 3.31603 33.1401 3.29903C33.1121 3.28103 33.0831 3.26803 33.0531 3.25603C33.0241 3.24503 32.9951 3.23703 32.9651 3.23203C32.9331 3.22703 32.9021 3.22503 32.8691 3.22503C32.8371 3.22603 32.8071 3.23003 32.7751 3.23703C32.7421 3.24403 32.7121 3.25503 32.6811 3.26803C32.6641 3.27603 32.6461 3.27603 32.6301 3.28603L1.71707 21.133C1.70307 21.141 1.69507 21.154 1.68207 21.163C1.66907 21.173 1.65307 21.176 1.64007 21.186C1.62607 21.199 1.61907 21.215 1.60707 21.228C1.58407 21.253 1.56407 21.278 1.54607 21.306C1.52907 21.333 1.51607 21.362 1.50407 21.391C1.49307 21.421 1.48407 21.451 1.47907 21.482C1.47407 21.514 1.47207 21.544 1.47307 21.576C1.47307 21.608 1.47707 21.638 1.48407 21.671C1.49107 21.703 1.50207 21.733 1.51607 21.764C1.52307 21.782 1.52407 21.799 1.53307 21.816C1.53907 21.827 1.55207 21.832 1.55907 21.841C1.57007 21.858 1.57407 21.876 1.58707 21.892L14.4811 36.88L1.16207 38.895C1.15307 38.896 1.14607 38.902 1.13707 38.904C1.10107 38.912 1.07007 38.926 1.03607 38.941C1.00907 38.953 0.981074 38.962 0.957074 38.979C0.931074 38.997 0.911074 39.02 0.888074 39.042C0.864074 39.066 0.840074 39.089 0.821074 39.117C0.816074 39.126 0.807074 39.13 0.802074 39.138C0.790074 39.158 0.789074 39.18 0.781074 39.2C0.768074 39.231 0.756074 39.262 0.749074 39.295C0.742074 39.331 0.743074 39.365 0.744074 39.401C0.744074 39.422 0.738074 39.441 0.741074 39.463C0.742074 39.473 0.748074 39.481 0.750074 39.489C0.756074 39.517 0.767074 39.543 0.777074 39.569C0.790074 39.601 0.803074 39.632 0.822074 39.661C0.836074 39.682 0.853074 39.7 0.870074 39.72C0.896074 39.748 0.924074 39.774 0.956074 39.795C0.967074 39.802 0.973074 39.814 0.985074 39.82L14.9481 47.88V62.038C14.9481 62.059 14.9571 62.077 14.9601 62.098C14.9641 62.133 14.9691 62.166 14.9811 62.2C14.9911 62.231 15.0061 62.258 15.0231 62.285C15.0391 62.312 15.0541 62.339 15.0751 62.362C15.0991 62.389 15.1261 62.411 15.1551 62.432C15.1711 62.444 15.1811 62.46 15.1991 62.471L46.1121 80.317H46.1131C46.1211 80.322 46.1301 80.322 46.1371 80.326C46.2041 80.36 46.2781 80.384 46.3591 80.385H46.3601H46.3611C46.4421 80.384 46.5161 80.361 46.5831 80.326C46.5911 80.322 46.6001 80.322 46.6071 80.317H46.6081L77.5211 62.471C77.5391 62.46 77.5481 62.444 77.5651 62.432C77.5931 62.411 77.6211 62.389 77.6441 62.362C77.6651 62.339 77.6811 62.312 77.6971 62.285C77.7131 62.258 77.7281 62.231 77.7381 62.2C77.7501 62.167 77.7551 62.134 77.7591 62.098C77.7621 62.077 77.7721 62.06 77.7721 62.038V45.808L91.2001 38.056C91.2171 38.046 91.2261 38.031 91.2411 38.02C91.2701 37.999 91.2981 37.976 91.3211 37.95C91.3421 37.927 91.3581 37.901 91.3741 37.875C91.3901 37.848 91.4041 37.82 91.4151 37.79C91.4271 37.758 91.4331 37.727 91.4371 37.693C91.4401 37.673 91.4501 37.657 91.4501 37.637C91.4501 37.624 91.4441 37.614 91.4441 37.601C91.4421 37.568 91.4341 37.536 91.4261 37.502C91.4181 37.47 91.4081 37.439 91.3951 37.408C91.3891 37.396 91.3891 37.384 91.3831 37.373C91.3731 37.356 91.3571 37.347 91.3461 37.331C91.3251 37.303 91.3031 37.277 91.2781 37.254C91.2551 37.233 91.2301 37.217 91.2041 37.201C91.1761 37.183 91.1471 37.17 91.1161 37.158C91.0851 37.147 91.0541 37.141 91.0221 37.137C91.0021 37.134 90.9851 37.124 90.9631 37.123L78.2721 36.767L91.6281 19.564C91.6371 19.552 91.6391 19.539 91.6471 19.527C91.6531 19.519 91.6621 19.516 91.6671 19.507C91.6791 19.487 91.6791 19.466 91.6881 19.445C91.7011 19.414 91.7141 19.383 91.7201 19.35C91.7261 19.317 91.7261 19.288 91.7261 19.255C91.7261 19.222 91.7261 19.193 91.7201 19.161C91.7141 19.129 91.7021 19.1 91.6901 19.07C91.6781 19.041 91.6671 19.013 91.6491 18.986C91.6301 18.958 91.6071 18.934 91.5841 18.91C91.5681 18.894 91.5591 18.875 91.5411 18.861C91.5321 18.853 91.5201 18.852 91.5111 18.845C91.5021 18.838 91.4951 18.828 91.4851 18.823L60.5741 0.978029ZM76.7751 61.751L46.8621 79.02V55.603L60.0271 55.969C60.0311 55.969 60.0371 55.969 60.0411 55.969C60.1241 55.969 60.1991 55.944 60.2681 55.908C60.2761 55.904 60.2841 55.905 60.2911 55.901L76.7751 46.384V61.751ZM32.7711 4.35703L45.5901 19.262L15.5591 36.6L2.73907 21.696L32.7711 4.35703ZM45.8621 43.902L36.9251 49.061L16.4491 37.239L45.8621 20.258V43.902ZM46.3621 44.768L54.8001 49.639L46.3621 54.511L37.9241 49.639L46.3621 44.768ZM15.3521 37.76L36.6761 50.072L36.6791 50.074C36.6791 50.074 36.6801 50.074 36.6811 50.075L44.8771 54.807L32.2481 56.715L15.7001 47.16L2.72307 39.67L15.3521 37.76ZM77.0251 45.087L59.9141 54.965L48.1431 54.637L56.0441 50.075C56.0451 50.074 56.0451 50.074 56.0461 50.074L56.0491 50.072L77.4021 37.744L89.1741 38.074L77.0251 45.087ZM47.1091 19.246L60.4521 2.06003L90.4901 19.402L77.1461 36.589L47.1091 19.246Z" fill="black"/>
</svg>
