<svg id="Capa_1" enable-background="new 0 0 512 512" height="512" viewBox="0 0 512 512" width="512" xmlns="http://www.w3.org/2000/svg"><path d="m510.015 221.935-52.875-92.285c-1.806-3.152-4.612-5.426-7.818-6.611-.013-.005-.022-.012-.035-.016l-186.492-68.346c-3.306-1.212-6.932-1.221-10.245-.029l-189.757 68.346c-.005.002-.008.006-.013.008-3.249 1.174-6.094 3.464-7.919 6.647l-52.876 92.286c-2.172 3.792-2.583 8.342-1.125 12.461s4.639 7.398 8.712 8.979l43.304 16.81v114.709c0 6.324 3.967 11.969 9.917 14.112l188.314 67.826c1.921.894 4.054 1.407 6.313 1.407.033 0 .065-.005.098-.005.039 0 .077.005.115.005 1.72 0 3.44-.296 5.083-.887l189.757-68.346c5.95-2.143 9.917-7.788 9.917-14.112v-115.977l40.038-15.542c4.073-1.581 7.255-4.86 8.712-8.979 1.459-4.119 1.048-8.669-1.125-12.461zm-252.426-137.215 143.017 52.413-143.226 52.689-145.358-52.672zm-182.967 70.786 160.811 58.272-40.333 69.435-158.416-61.494zm8.254 116.325 113.323 43.99c1.776.689 3.611 1.019 5.424 1.019 5.213 0 10.222-2.729 12.975-7.468l27.821-47.895v160.34l-159.543-57.463zm349.514 92.523-159.971 57.617v-157.906l24.818 45.015c3.627 6.579 11.563 9.459 18.564 6.741l116.589-45.258zm-115.215-81.247-38.189-69.267 158.424-58.28 37.906 66.159z"/></svg>