<svg width="428" height="512" viewBox="0 0 428 512" fill="none" xmlns="http://www.w3.org/2000/svg">
<path d="M214 8.53331V503.467C9.19971 443.733 9.19971 256 9.19971 256V76.8L214 8.53331Z" fill="#DCF9FE"/>
<path d="M418.8 76.8V256C418.8 256 418.8 443.733 214 503.467V8.53331L418.8 76.8Z" fill="#BCEBF5"/>
<path d="M214 8.53331V17.0666L393.2 76.8V256C387.534 364.623 316.707 459.02 214 494.831V503.467C418.8 443.733 418.8 256 418.8 256V76.8L214 8.53331Z" fill="#D5F0FF" fill-opacity="0.53"/>
<path d="M214 341.333C261.128 341.333 299.333 303.128 299.333 256C299.333 208.872 261.128 170.667 214 170.667C166.872 170.667 128.667 208.872 128.667 256C128.667 303.128 166.872 341.333 214 341.333Z" fill="#57CEE6"/>
<path d="M214 170.667C209.712 170.701 205.434 171.058 201.2 171.733C242.9 178.003 273.743 213.831 273.743 256C273.743 298.169 242.9 333.997 201.2 340.267C232.862 345.111 264.57 331.808 283.296 305.821C302.023 279.835 304.611 245.547 289.996 217.044C275.382 188.541 246.031 170.629 214 170.667Z" fill="#DCF9FE"/>
<path d="M214 136.533C228.138 136.533 239.6 125.072 239.6 110.933C239.6 96.7948 228.138 85.3333 214 85.3333C199.861 85.3333 188.4 96.7948 188.4 110.933C188.4 125.072 199.861 136.533 214 136.533Z" fill="#57CEE6"/>
<path d="M214 426.667C228.138 426.667 239.6 415.205 239.6 401.067C239.6 386.928 228.138 375.467 214 375.467C199.861 375.467 188.4 386.928 188.4 401.067C188.4 415.205 199.861 426.667 214 426.667Z" fill="#57CEE6"/>
<path d="M359.067 281.6C373.205 281.6 384.667 270.138 384.667 256C384.667 241.862 373.205 230.4 359.067 230.4C344.928 230.4 333.467 241.862 333.467 256C333.467 270.138 344.928 281.6 359.067 281.6Z" fill="#57CEE6"/>
<path d="M68.933 281.6C83.0715 281.6 94.533 270.138 94.533 256C94.533 241.862 83.0715 230.4 68.933 230.4C54.7945 230.4 43.333 241.862 43.333 256C43.333 270.138 54.7945 281.6 68.933 281.6Z" fill="#57CEE6"/>
<path d="M214 503.467C218.403 502.178 222.584 500.762 226.8 499.362C34.9277 435.669 34.7997 256 34.7997 256V76.8L226.8 12.8L214 8.53331L9.19971 76.8V256C9.19971 256 9.19971 443.733 214 503.467Z" fill="white"/>
<path d="M0.666504 187.733H17.7332V256H0.666504V187.733Z" fill="white"/>
<path d="M9.19984 230.4C13.9127 230.4 17.7332 226.579 17.7332 221.867C17.7332 217.154 13.9127 213.333 9.19984 213.333C4.48701 213.333 0.666504 217.154 0.666504 221.867C0.666504 226.579 4.48701 230.4 9.19984 230.4Z" fill="#24AFD6"/>
<path d="M211.611 511.659C213.171 512.114 214.829 512.114 216.389 511.659C424.918 450.842 427.333 257.946 427.333 256V76.8C427.334 73.1255 424.983 69.863 421.496 68.7019L216.696 0.43518C214.946 -0.147827 213.054 -0.147827 211.303 0.43518L6.5033 68.7019C3.04256 69.8782 0.72934 73.145 0.768904 76.8H0.666504V187.733C0.666504 192.446 4.48701 196.267 9.19984 196.267C13.9127 196.267 17.7332 192.446 17.7332 187.733V82.9525L205.467 20.3776V51.2C205.467 55.9128 209.287 59.7333 214 59.7333C218.713 59.7333 222.533 55.9128 222.533 51.2V20.3776L410.267 82.9525V256C410.267 263.27 407.561 431.403 222.533 491.785V460.8C222.533 456.087 218.713 452.267 214 452.267C209.287 452.267 205.467 456.087 205.467 460.8V491.776C20.4382 431.394 17.7332 263.262 17.7332 256C17.7332 251.287 13.9127 247.467 9.19984 247.467C4.48701 247.467 0.666504 251.287 0.666504 256C0.666504 257.946 3.08143 450.842 211.611 511.659V511.659Z" fill="#24AFD6"/>
<path d="M51.8665 128V107.52L89.251 95.0613C93.7282 93.5721 96.1504 88.7353 94.6611 84.2581C93.1719 79.7809 88.3351 77.3587 83.8579 78.848L40.6366 93.3035C37.1504 94.4646 34.7989 97.7271 34.7998 101.402V128C34.7998 132.713 38.6203 136.533 43.3331 136.533C48.046 136.533 51.8665 132.713 51.8665 128Z" fill="#24AFD6"/>
<path d="M205.466 307.2C205.466 311.913 209.287 315.733 214 315.733C246.974 315.696 273.695 288.974 273.733 256C273.733 251.287 269.912 247.467 265.2 247.467C260.487 247.467 256.666 251.287 256.666 256C256.638 279.552 237.552 298.638 214 298.667C211.736 298.667 209.566 299.566 207.966 301.166C206.365 302.766 205.466 304.937 205.466 307.2Z" fill="#24AFD6"/>
<path d="M68.933 290.133C84.4501 290.075 97.9754 279.558 101.855 264.533H120.568C122.274 283.468 129.716 301.431 141.901 316.023L122.625 335.3C120.406 337.443 119.517 340.615 120.298 343.599C121.079 346.583 123.409 348.912 126.392 349.693C129.376 350.474 132.548 349.585 134.691 347.366L153.968 328.09C168.561 340.28 186.528 347.725 205.466 349.431V368.145C188.824 372.442 177.973 388.444 180.138 405.495C182.304 422.547 196.811 435.328 214 435.328C231.188 435.328 245.695 422.547 247.861 405.495C250.027 388.444 239.176 372.442 222.533 368.145V349.431C241.467 347.726 259.431 340.284 274.023 328.098L293.3 347.375C296.648 350.609 301.971 350.563 305.262 347.271C308.554 343.979 308.6 338.657 305.366 335.309L286.089 316.032C298.279 301.438 305.725 283.472 307.431 264.533H326.145C330.442 281.176 346.444 292.027 363.495 289.861C380.547 287.695 393.327 273.188 393.327 256C393.327 238.812 380.547 224.305 363.495 222.139C346.444 219.973 330.442 230.824 326.145 247.467H307.431C305.726 228.532 298.283 210.569 286.098 195.977L305.375 176.7C308.608 173.351 308.562 168.029 305.271 164.738C301.979 161.446 296.657 161.4 293.308 164.634L274.032 183.91C259.438 171.72 241.471 164.275 222.533 162.569V143.855C239.176 139.558 250.027 123.556 247.861 106.505C245.695 89.4531 231.188 76.6721 214 76.6721C196.811 76.6721 182.304 89.4531 180.138 106.505C177.973 123.556 188.824 139.558 205.466 143.855V162.569C186.532 164.274 168.569 171.716 153.976 183.902L134.699 164.625C131.351 161.391 126.029 161.437 122.737 164.729C119.446 168.021 119.399 173.343 122.633 176.691L141.91 195.968C129.72 210.562 122.274 228.528 120.568 247.467H101.855C97.3898 230.335 80.5494 219.477 63.1023 222.48C45.6551 225.483 33.4144 241.347 34.9346 258.986C36.4547 276.624 51.2293 290.16 68.933 290.133V290.133ZM231.066 401.067C231.066 410.492 223.425 418.133 214 418.133C204.574 418.133 196.933 410.492 196.933 401.067C196.933 391.641 204.574 384 214 384C223.425 384 231.066 391.641 231.066 401.067ZM359.066 238.933C368.492 238.933 376.133 246.574 376.133 256C376.133 265.426 368.492 273.067 359.066 273.067C349.641 273.067 342 265.426 342 256C342 246.574 349.641 238.933 359.066 238.933ZM196.933 110.933C196.933 101.508 204.574 93.8667 214 93.8667C223.425 93.8667 231.066 101.508 231.066 110.933C231.066 120.359 223.425 128 214 128C204.574 128 196.933 120.359 196.933 110.933ZM214 179.2C256.415 179.2 290.8 213.585 290.8 256C290.8 298.415 256.415 332.8 214 332.8C171.584 332.8 137.2 298.415 137.2 256C137.251 213.606 171.606 179.252 214 179.2ZM68.933 238.933C78.3586 238.933 85.9996 246.574 85.9996 256C85.9996 265.426 78.3586 273.067 68.933 273.067C59.5073 273.067 51.8663 265.426 51.8663 256C51.8663 246.574 59.5073 238.933 68.933 238.933Z" fill="#24AFD6"/>
<path d="M188.4 230.4C193.113 230.4 196.933 226.579 196.933 221.867C196.933 217.154 193.113 213.333 188.4 213.333C183.687 213.333 179.867 217.154 179.867 221.867C179.867 226.579 183.687 230.4 188.4 230.4Z" fill="#24AFD6"/>
<path d="M205.466 256C210.179 256 214 252.179 214 247.467C214 242.754 210.179 238.933 205.466 238.933C200.754 238.933 196.933 242.754 196.933 247.467C196.933 252.179 200.754 256 205.466 256Z" fill="#24AFD6"/>
<path d="M171.333 256C176.046 256 179.866 252.179 179.866 247.467C179.866 242.754 176.046 238.933 171.333 238.933C166.62 238.933 162.8 242.754 162.8 247.467C162.8 252.179 166.62 256 171.333 256Z" fill="#24AFD6"/>
</svg>
