<svg height="512" viewBox="0 0 50 60" width="512" xmlns="http://www.w3.org/2000/svg"><g id="Page-1" fill="none" fill-rule="evenodd"><g id="002---Protection-Against-Germs" fill-rule="nonzero"><path id="Shape" d="m25 1v58c-24-7-24-29-24-29v-21z" fill="#cad9fc"/><path id="Shape" d="m49 9v21s0 22-24 29v-58z" fill="#a4c2f7"/><path id="Shape" d="m25 1v1l21 7v21c-.6639275 12.7292984-8.9640451 23.7913789-21 27.988v1.012c24-7 24-29 24-29v-21z" fill="#7facfa"/><circle id="Oval" cx="25" cy="30" fill="#e8edfc" r="10"/><path id="Shape" d="m25 20c-.5024253.0040337-1.0038371.045818-1.5.125 4.8867805.7347638 8.5012202 4.9332896 8.5012202 9.875s-3.6144397 9.1402362-8.5012202 9.875c3.710451.5677523 7.4261819-.9912669 9.6206899-4.0365787s2.4977618-7.0634251.7851783-10.4036118c-1.7125836-3.3401866-5.152234-5.4392346-8.9058682-5.4348095z" fill="#cad9fc"/><circle id="Oval" cx="25" cy="13" fill="#e8edfc" r="3"/><circle id="Oval" cx="25" cy="47" fill="#e8edfc" r="3"/><circle id="Oval" cx="42" cy="30" fill="#e8edfc" r="3"/><circle id="Oval" cx="8" cy="30" fill="#e8edfc" r="3"/><path id="Shape" d="m25 59c.516-.151 1.006-.317 1.5-.481-22.485-7.464-22.5-28.519-22.5-28.519v-21l22.5-7.5-1.5-.5-24 8v21s0 22 24 29z" fill="#fff"/><path id="Rectangle-path" d="m0 22h2v8h-2z" fill="#fff"/><g fill="#428dff"><circle id="Oval" cx="1" cy="26" r="1"/><path id="Shape" d="m24.72 59.96c.1828571.0533333.3771429.0533333.56 0 24.437-7.127 24.72-29.732 24.72-29.96v-21c.0001037-.43060741-.2754572-.81292807-.684-.949l-24-8c-.2051274-.06832108-.4268726-.06832108-.632 0l-24 8c-.40555572.13785825-.67663641.52067904-.672.949h-.012v13c0 .5522847.44771525 1 1 1s1-.4477153 1-1v-12.279l22-7.333v3.612c0 .55228475.4477153 1 1 1s1-.44771525 1-1v-3.612l22 7.333v20.279c0 .852-.317 20.555-22 27.631v-3.631c0-.5522847-.4477153-1-1-1s-1 .4477153-1 1v3.63c-21.683-7.076-22-26.779-22-27.63 0-.5522847-.44771525-1-1-1s-1 .4477153-1 1c0 .228.283 22.833 24.72 29.96z"/><path id="Shape" d="m6 15v-2.4l4.381-1.46c.5246705-.174522.808522-.7413295.634-1.266-.174522-.52467051-.7413295-.80852198-1.266-.634l-5.065 1.694c-.40854275.1360719-.68410369.5183926-.684.949v3.117c0 .5522847.44771525 1 1 1s1-.4477153 1-1z"/><path id="Shape" d="m24 36c0 .5522847.4477153 1 1 1 3.8641657-.0044086 6.9955914-3.1358343 7-7 0-.5522847-.4477153-1-1-1s-1 .4477153-1 1c-.0033061 2.7600532-2.2399468 4.9966939-5 5-.2652165 0-.5195704.1053568-.7071068.2928932s-.2928932.4418903-.2928932.7071068z"/><path id="Shape" d="m8 34c1.81841162-.0068148 3.4034067-1.2393149 3.858-3h2.193c.1998585 2.218881 1.0720281 4.3239496 2.5 6.034l-2.259 2.259c-.2599566.2510745-.3642126.6228779-.2726972.9725073.0915155.3496295.3645604.6226744.7141899.7141899.3496294.0915154.7214328-.0127406.9725073-.2726972l2.259-2.259c1.7102012 1.4285198 3.815658 2.3010546 6.035 2.501v2.193c-1.9503067.503567-3.2219252 2.3787867-2.9681188 4.3770005s1.9538507 3.4959828 3.9681188 3.4959828 3.7143124-1.497769 3.9681188-3.4959828-1.0178121-3.8734335-2.9681188-4.3770005v-2.193c2.218881-.1998585 4.3239496-1.0720281 6.034-2.5l2.259 2.259c.3923789.3789722 1.0160848.3735524 1.4018186-.0121814s.3911536-1.0094397.0121814-1.4018186l-2.259-2.259c1.4285198-1.7102012 2.3010546-3.815658 2.501-6.035h2.193c.503567 1.9503067 2.3787867 3.2219252 4.3770005 2.9681188s3.4959828-1.9538507 3.4959828-3.9681188-1.497769-3.7143124-3.4959828-3.9681188-3.8734335 1.0178121-4.3770005 2.9681188h-2.193c-.1998585-2.218881-1.0720281-4.3239496-2.5-6.034l2.259-2.259c.3789722-.3923789.3735524-1.0160848-.0121814-1.4018186s-1.0094397-.3911536-1.4018186-.0121814l-2.259 2.259c-1.7102012-1.4285198-3.815658-2.3010546-6.035-2.501v-2.193c1.9503067-.503567 3.2219252-2.3787867 2.9681188-4.3770005s-1.9538507-3.49598285-3.9681188-3.49598285-3.7143124 1.49776905-3.9681188 3.49598285 1.0178121 3.8734335 2.9681188 4.3770005v2.193c-2.218881.1998585-4.3239496 1.0720281-6.034 2.5l-2.259-2.259c-.3923789-.3789722-1.0160848-.3735524-1.4018186.0121814s-.3911536 1.0094397-.0121814 1.4018186l2.259 2.259c-1.4285198 1.7102012-2.3010546 3.815658-2.501 6.035h-2.193c-.5232114-2.0075927-2.49670222-3.2800579-4.54128581-2.9281251-2.04458359.3519327-3.47904478 2.2110063-3.30090124 4.2779954.17814354 2.066989 1.90953787 3.6532132 3.98418705 3.6501297zm19 13c0 1.1045695-.8954305 2-2 2s-2-.8954305-2-2 .8954305-2 2-2 2 .8954305 2 2zm15-19c1.1045695 0 2 .8954305 2 2s-.8954305 2-2 2-2-.8954305-2-2 .8954305-2 2-2zm-19-15c0-1.1045695.8954305-2 2-2s2 .8954305 2 2-.8954305 2-2 2-2-.8954305-2-2zm2 8c4.9705627 0 9 4.0294373 9 9s-4.0294373 9-9 9-9-4.0294373-9-9c.006061-4.9680501 4.0319499-8.993939 9-9zm-17 7c1.1045695 0 2 .8954305 2 2s-.8954305 2-2 2-2-.8954305-2-2 .8954305-2 2-2z"/><circle id="Oval" cx="22" cy="26" r="1"/><circle id="Oval" cx="24" cy="29" r="1"/><circle id="Oval" cx="20" cy="29" r="1"/></g></g></g></svg>